<svg height="567pt" viewBox="-17 -47 567.99861 567" width="567pt" xmlns="http://www.w3.org/2000/svg"><path d="m308.808594 263.367188c-15.753906-2.03125-30.875-7.460938-44.320313-15.914063-4.089843-2.570313-5.320312-7.972656-2.75-12.0625 2.574219-4.09375 7.972657-5.324219 12.066407-2.75 14.660156 9.222656 31.632812 14.128906 48.957031 14.148437l103.445312.148438h.027344c8 0 14.484375-6.480469 14.5-14.484375l.023437-15.972656-.472656.539062-53.40625-46.429687.109375-.125-16.738281-.023438c-7.613281-.015625-14.746094-3.699218-19.15625-9.90625l-47.480469-66.847656c-2.71875-3.816406-7.109375-6.089844-11.796875-6.101562l-103.070312-.148438h-.039063c-15.398437 0-27.886719 12.472656-27.90625 27.867188l-.304687 204.664062 104.011718.148438c5.210938-15.898438 14.109376-30.332032 25.976563-42.121094 5.554687-5.535156 11.699219-10.441406 18.324219-14.628906zm-15.324219-140.878907h.019531c8.632813.007813 15.625 7.007813 15.621094 15.636719-.003906 8.625-7.007812 15.617188-15.632812 15.613281h-.03125c-8.625-.003906-15.617188-7.007812-15.609376-15.632812.003907-8.632813 7.007813-15.621094 15.632813-15.617188zm-106.648437 136.871094h-.113282c-4.832031-.007813-8.75-3.925781-8.738281-8.761719l.199219-141.960937c.011718-4.828125 3.925781-8.738281 8.75-8.738281h.015625c4.828125.003906 8.742187 3.929687 8.734375 8.765624l-.1875 132.589844c30-4.316406 52.289062-30 52.339844-60.308594l.03125-26.390624c.011718-4.828126 3.925781-8.734376 8.75-8.734376h.015624c4.828126.003907 8.746094 3.925782 8.734376 8.757813l-.035157 26.394531c-.058593 43.308594-35.1875 78.386719-78.496093 78.386719zm0 0"/><path d="m117.367188 388.742188c37.355468 31.496093 84.316406 59.964843 141.785156 83.144531l.046875-100.371094-113.929688-.148437c-7.472656 8.3125-17.152343 14.332031-27.902343 17.375zm0 0"/><path d="m326.949219 408.101562 2.539062-.585937-.585937-2.539063c-4.5625-19.6875-24.203125-31.960937-43.898438-27.445312l-2.539062.585938.585937 2.542968c4.5625 19.6875 24.203125 31.960938 43.898438 27.441406zm0 0"/><path d="m440.808594 180.117188c0-5.285157-4.277344-9.578126-9.566406-9.59375l-17.796876-.023438 27.34375 23.761719zm0 0"/><path d="m156.203125 353.878906 103.011719.132813v-.820313c.003906-5.214844.390625-10.425781 1.152344-15.585937l-100.160157-.140625c-.539062 5.632812-1.886719 11.164062-4.003906 16.414062zm0 0"/><path d="m528.628906 122.460938c-7.433594-36.820313-24.074218-67.769532-48.136718-89.496094-23.953126-21.652344-54.175782-33.089844-87.390626-33.089844-38.261718 0-80.359374 15.878906-121.742187 45.910156-3.101563 2.25-7.304687 2.226563-10.375-.070312-42-31.328125-83.160156-47.21875-122.335937-47.21875-33.308594 0-63.480469 11.488281-87.277344 33.222656-24.015625 21.945312-40.464844 53.300781-47.546875 90.671875-14.855469 77.40625 12.796875 172.160156 96.503906 251.140625.34375-.042969.691406-.066406 1.042969-.066406 22.945312-.035156 41.542968-18.605469 41.609375-41.546875l.324219-216.640625c.03125-25.050782 20.347656-45.339844 45.398437-45.339844h.066406l103.066407.148438c10.347656.023437 20.046874 5.039062 26.042968 13.464843l47.484375 66.847657c1.125 1.59375 2.957031 2.535156 4.90625 2.539062l60.996094.089844c14.945313.039062 27.039063 12.164062 27.039063 27.109375l-.070313 52.34375c-.027344 17.652343-14.347656 31.949219-32 31.949219h-.046875l-59.261719-.082032c-.390625.054688-.78125.082032-1.179687.089844-.042969 0-.089844 0-.140625 0-49.042969 0-88.824219 39.722656-88.890625 88.773438v8.273437l4.359375-1.007813c29.113281-6.679687 58.140625 11.464844 64.882812 40.5625l2.554688 11.070313c1.085937 4.707031-1.851563 9.402344-6.5625 10.488281l-11.0625 2.550782c-20.152344 4.664062-41.195313-2.589844-54.195313-18.679688l-.03125 63.992188c93.707032-39.203126 166.269532-95.371094 210.125-162.777344 38.632813-59.375 53.496094-125.15625 41.84375-185.222656zm0 0"/></svg>