<?xml version="1.0" encoding="iso-8859-1"?>
<!-- Generator: Adobe Illustrator 19.0.0, SVG Export Plug-In . SVG Version: 6.00 Build 0)  -->
<svg version="1.1" id="Capa_1" xmlns="http://www.w3.org/2000/svg" xmlns:xlink="http://www.w3.org/1999/xlink" x="0px" y="0px"
	 viewBox="0 0 512 512" style="enable-background:new 0 0 512 512;" xml:space="preserve">
<g>
	<g>
		<path d="M452,8.5H60c-33.084,0-60,26.916-60,60c0,21.654,11.702,41.384,30,51.962V158.5h452v-38.038
			c18.298-10.578,30-30.308,30-51.962C512,35.416,485.084,8.5,452,8.5z"/>
	</g>
</g>
<g>
	<g>
		<path d="M436,398.5c0,33.084-26.916,60-60,60c-33.084,0-60-26.916-60-60c0,33.084-26.916,60-60,60s-60-26.916-60-60H30v45
			c0,33.084,26.916,60,60,60h332c33.084,0,60-26.916,60-60v-45H436z"/>
	</g>
</g>
<g>
	<g>
		<path d="M75,188.5c-24.853,0-45,20.147-45,45c0,24.853,20.147,45,45,45h40.721C90.769,256.494,75,224.306,75,188.5z"/>
	</g>
</g>
<g>
	<g>
		<path d="M302.333,188.5h-83.667c0,49.626,40.375,90,90.001,90h34.387C318.102,256.494,302.333,224.306,302.333,188.5z"/>
	</g>
</g>
<g>
	<g>
		<path d="M437,188.5H332.333c0,49.626,40.374,90,90,90H437c24.853,0,45-20.147,45-45C482,208.647,461.853,188.5,437,188.5z"/>
	</g>
</g>
<g>
	<g>
		<path d="M188.666,188.5H105c0,49.626,40.374,90,90,90h34.387C204.435,256.494,188.666,224.306,188.666,188.5z"/>
	</g>
</g>
<g>
	<g>
		<path d="M482,308.5H30c-16.569,0-30,13.431-30,30c0,16.569,13.431,30,30,30h196v30c0,16.569,13.431,30,30,30
			c16.569,0,30-13.431,30-30v-30h60v30c0,16.569,13.431,30,30,30c16.569,0,30-13.431,30-30v-30h76c16.569,0,30-13.431,30-30
			C512,321.931,498.569,308.5,482,308.5z"/>
	</g>
</g>
<g>
</g>
<g>
</g>
<g>
</g>
<g>
</g>
<g>
</g>
<g>
</g>
<g>
</g>
<g>
</g>
<g>
</g>
<g>
</g>
<g>
</g>
<g>
</g>
<g>
</g>
<g>
</g>
<g>
</g>
</svg>
