<svg xmlns="http://www.w3.org/2000/svg" height="512pt" version="1.1" viewBox="0 0 512 512" width="512pt">
<g id="surface1">
<path d="M 375 392 C 391.539062 392 405 378.539062 405 362 L 405 347 C 405 303.683594 368.558594 269.671875 325.957031 272.117188 C 286.832031 274.152344 255 310.042969 255 352.097656 L 255 407 C 255 463.175781 299.46875 508.820312 354.992188 511.496094 C 441.316406 506.285156 512 434.609375 512 347 L 512 332 C 512 228.757812 421.757812 142.519531 312.363281 152.851562 C 257.050781 158.117188 209.128906 190.429688 180 236.433594 L 180 347 C 180 371.8125 200.1875 392 225 392 L 225 352.097656 C 225 294.339844 269.574219 245.019531 324.375 242.148438 C 387.261719 239.5 435 288.769531 435 347 L 435 362 C 435 395.089844 408.089844 422 375 422 C 341.910156 422 315 395.089844 315 362 L 315 347 C 315 338.710938 321.710938 332 330 332 C 338.289062 332 345 338.710938 345 347 L 345 362 C 345 378.539062 358.460938 392 375 392 Z M 375 392 " style=" stroke:none;fill-rule:nonzero;fill:rgb(0%,0%,0%);fill-opacity:1;" />
<path d="M 22.972656 58.582031 L 59.644531 160.453125 C 41.96875 170.890625 30 189.984375 30 212 L 30 377 C 30 451.558594 90.441406 512 165 512 C 165 512 225.179688 512 276.195312 512 C 248.976562 490.222656 230.613281 458.410156 226.515625 422 L 225 422 C 183.648438 422 150 388.351562 150 347 C 150 342.875 150 206.527344 150 215.207031 C 150 192.808594 138.527344 171.636719 120.359375 160.414062 L 157.019531 58.582031 C 170.101562 55.351562 180 44.078125 180 30 C 180 13.429688 166.570312 0 150 0 C 133.429688 0 120 13.429688 120 30 C 120 37.863281 123.183594 44.894531 128.132812 50.242188 L 91.363281 152.375 C 90.4375 152.355469 89.488281 152.210938 88.574219 152.230469 L 51.863281 50.246094 C 56.8125 44.898438 60 37.863281 60 30 C 60 13.429688 46.570312 0 30 0 C 13.429688 0 0 13.429688 0 30 C 0 44.074219 9.898438 55.347656 22.972656 58.582031 Z M 105 257 C 105 265.289062 98.289062 272 90 272 C 81.710938 272 75 265.289062 75 257 L 75 227 C 75 218.710938 81.710938 212 90 212 C 98.289062 212 105 218.710938 105 227 Z M 105 257 " style=" stroke:none;fill-rule:nonzero;fill:rgb(0%,0%,0%);fill-opacity:1;" />
</g>
</svg>